<?xml version="1.0" encoding="utf-8"?>
<!-- Generator: Adobe Illustrator 22.1.0, SVG Export Plug-In . SVG Version: 6.00 Build 0)  -->
<svg version="1.1" id="Ebene_1" xmlns="http://www.w3.org/2000/svg" xmlns:xlink="http://www.w3.org/1999/xlink" x="0px" y="0px"
	 viewBox="0 0 104.8 39.5" style="enable-background:new 0 0 104.8 39.5;" xml:space="preserve">
<style type="text/css">
	.st0{fill:#EDEDED;}
	.st1{fill:none;}
	.st2{fill:#FFFFFF;}
</style>
<g>
	<path class="st0" d="M4.7,35c0-0.4-0.1-0.7-0.4-1c-0.3-0.2-0.8-0.5-1.5-0.7c-0.8-0.2-1.4-0.5-1.8-0.8c-0.4-0.3-0.6-0.7-0.6-1.3
		c0-0.5,0.2-1,0.7-1.3c0.5-0.3,1-0.5,1.7-0.5c0.7,0,1.3,0.2,1.8,0.6s0.7,0.9,0.7,1.5l0,0H4.6c0-0.5-0.2-0.9-0.5-1.2S3.3,30,2.7,30
		c-0.6,0-1,0.1-1.3,0.4c-0.3,0.3-0.5,0.6-0.5,1c0,0.4,0.1,0.7,0.4,0.9c0.3,0.2,0.8,0.5,1.5,0.6c0.8,0.2,1.4,0.5,1.8,0.8
		s0.6,0.8,0.6,1.3c0,0.6-0.2,1-0.7,1.4s-1.1,0.5-1.8,0.5c-0.7,0-1.3-0.2-1.9-0.5s-0.8-0.9-0.8-1.6l0,0h0.5c0,0.6,0.2,1,0.6,1.2
		c0.4,0.3,0.9,0.4,1.5,0.4c0.6,0,1-0.1,1.4-0.4C4.5,35.7,4.7,35.4,4.7,35z"/>
	<path class="st0" d="M7.2,30v1.4h1.2v0.5H7.2v3.5c0,0.3,0.1,0.6,0.2,0.7s0.3,0.2,0.5,0.2c0.1,0,0.2,0,0.3,0c0.1,0,0.2,0,0.3,0
		l0.1,0.4c-0.1,0-0.2,0.1-0.4,0.1c-0.1,0-0.3,0-0.4,0c-0.4,0-0.7-0.1-0.9-0.4c-0.2-0.2-0.3-0.6-0.3-1.1v-3.5H5.7v-0.5h0.9V30H7.2z"
		/>
	<path class="st0" d="M12.8,36.7c0-0.2-0.1-0.3-0.1-0.5c0-0.1,0-0.3,0-0.4c-0.2,0.3-0.5,0.5-0.8,0.7c-0.3,0.2-0.7,0.3-1.1,0.3
		c-0.5,0-0.9-0.1-1.2-0.4c-0.3-0.3-0.4-0.6-0.4-1.1c0-0.5,0.2-0.9,0.6-1.2c0.4-0.3,1-0.4,1.7-0.4h1.2V33c0-0.4-0.1-0.7-0.4-0.9
		c-0.2-0.2-0.6-0.3-1-0.3c-0.4,0-0.7,0.1-1,0.3s-0.4,0.5-0.4,0.8l-0.5,0l0,0c0-0.4,0.2-0.8,0.5-1.1c0.4-0.3,0.9-0.5,1.5-0.5
		c0.6,0,1.1,0.1,1.4,0.4c0.4,0.3,0.5,0.7,0.5,1.3v2.6c0,0.2,0,0.4,0,0.5s0.1,0.4,0.1,0.5H12.8z M10.8,36.3c0.4,0,0.8-0.1,1.1-0.3
		c0.3-0.2,0.6-0.5,0.7-0.8v-1.1h-1.2c-0.5,0-1,0.1-1.3,0.3c-0.3,0.2-0.5,0.5-0.5,0.8c0,0.3,0.1,0.5,0.3,0.7
		C10.2,36.2,10.5,36.3,10.8,36.3z"/>
	<path class="st0" d="M14.1,34.1c0-0.8,0.2-1.5,0.5-2c0.4-0.5,0.9-0.8,1.5-0.8c0.4,0,0.7,0.1,1,0.2c0.3,0.2,0.5,0.4,0.7,0.7v-3.2
		h0.6v7.7h-0.5l0-0.8c-0.2,0.3-0.4,0.5-0.7,0.6c-0.3,0.2-0.6,0.2-1,0.2c-0.6,0-1.1-0.2-1.5-0.7s-0.5-1.1-0.5-1.9V34.1z M14.7,34.2
		c0,0.6,0.1,1.2,0.4,1.5c0.3,0.4,0.6,0.6,1.2,0.6c0.4,0,0.7-0.1,1-0.3c0.3-0.2,0.5-0.4,0.6-0.7v-2.5c-0.1-0.3-0.3-0.6-0.6-0.8
		s-0.6-0.3-1-0.3c-0.5,0-0.9,0.2-1.2,0.6s-0.4,1-0.4,1.7V34.2z"/>
	<path class="st0" d="M20.4,30v1.4h1.2v0.5h-1.2v3.5c0,0.3,0.1,0.6,0.2,0.7s0.3,0.2,0.5,0.2c0.1,0,0.2,0,0.3,0c0.1,0,0.2,0,0.3,0
		l0.1,0.4c-0.1,0-0.2,0.1-0.4,0.1c-0.1,0-0.3,0-0.4,0c-0.4,0-0.7-0.1-0.9-0.4c-0.2-0.2-0.3-0.6-0.3-1.1v-3.5h-0.9v-0.5h0.9V30H20.4z
		"/>
	<path class="st0" d="M23.1,36.7v-4.8h-0.9v-0.5h0.9v-0.8c0-0.5,0.1-0.9,0.4-1.2s0.6-0.4,1.1-0.4c0.1,0,0.2,0,0.3,0
		c0.1,0,0.2,0,0.3,0.1l-0.1,0.5c-0.1,0-0.2,0-0.2,0c-0.1,0-0.2,0-0.3,0c-0.3,0-0.6,0.1-0.7,0.3c-0.2,0.2-0.3,0.5-0.3,0.9v0.8h1.3
		v0.5h-1.3v4.8H23.1z"/>
	<path class="st0" d="M29.2,35.8c-0.2,0.3-0.4,0.6-0.7,0.7c-0.3,0.2-0.6,0.3-1,0.3c-0.6,0-1-0.2-1.3-0.6c-0.3-0.4-0.5-1-0.5-1.8
		v-3.1h0.6v3.1c0,0.6,0.1,1.1,0.3,1.4c0.2,0.3,0.5,0.4,0.9,0.4c0.4,0,0.8-0.1,1.1-0.3c0.3-0.2,0.5-0.5,0.6-0.8v-3.8h0.6v5.3h-0.5
		L29.2,35.8z M27.1,30.3h-0.9v-0.8h0.9V30.3z M29.4,30.3h-0.8v-0.8h0.8V30.3z"/>
	<path class="st0" d="M31.7,32.3c0.2-0.3,0.4-0.6,0.7-0.7c0.3-0.2,0.6-0.3,1-0.3c0.6,0,1,0.2,1.3,0.5c0.3,0.3,0.4,0.9,0.4,1.6v3.3
		h-0.6v-3.3c0-0.6-0.1-1-0.3-1.2s-0.5-0.4-0.9-0.4c-0.4,0-0.7,0.1-1,0.3c-0.3,0.2-0.5,0.5-0.6,0.8v3.7h-0.6v-7.7h0.6V32.3z"/>
	<path class="st0" d="M38.7,31.9l-0.4,0c-0.4,0-0.7,0.1-0.9,0.3S37,32.7,36.9,33v3.7h-0.6v-5.3h0.5l0.1,0.9v0.1
		c0.2-0.3,0.4-0.6,0.6-0.8c0.3-0.2,0.6-0.3,0.9-0.3c0.1,0,0.1,0,0.2,0c0.1,0,0.1,0,0.2,0L38.7,31.9z"/>
	<path class="st0" d="M43,35.8c-0.2,0.3-0.4,0.6-0.7,0.7c-0.3,0.2-0.6,0.3-1,0.3c-0.6,0-1-0.2-1.3-0.6c-0.3-0.4-0.5-1-0.5-1.8v-3.1
		h0.6v3.1c0,0.6,0.1,1.1,0.3,1.4c0.2,0.3,0.5,0.4,0.9,0.4c0.4,0,0.8-0.1,1.1-0.3c0.3-0.2,0.5-0.5,0.6-0.8v-3.8h0.6v5.3H43L43,35.8z"
		/>
	<path class="st0" d="M45,31.4l0.1,0.9c0.2-0.3,0.4-0.6,0.7-0.8c0.3-0.2,0.6-0.3,1-0.3c0.6,0,1,0.2,1.3,0.5c0.3,0.4,0.5,0.9,0.5,1.6
		v3.2H48v-3.2c0-0.6-0.1-1-0.3-1.3c-0.2-0.3-0.6-0.4-1-0.4c-0.4,0-0.7,0.1-1,0.3c-0.3,0.2-0.4,0.5-0.6,0.9v3.7h-0.6v-5.3H45z"/>
	<path class="st0" d="M49.5,34.1c0-0.8,0.2-1.5,0.5-2c0.4-0.5,0.9-0.8,1.5-0.8c0.4,0,0.7,0.1,1,0.2c0.3,0.2,0.5,0.4,0.7,0.7l0.1-0.8
		h0.5v5.2c0,0.7-0.2,1.2-0.6,1.6c-0.4,0.4-0.9,0.6-1.6,0.6c-0.3,0-0.5,0-0.8-0.1c-0.3-0.1-0.5-0.1-0.8-0.3l0.2-0.5
		c0.2,0.1,0.4,0.2,0.7,0.2s0.5,0.1,0.7,0.1c0.5,0,0.9-0.1,1.2-0.4s0.4-0.7,0.4-1.2V36c-0.2,0.3-0.4,0.5-0.7,0.6
		c-0.3,0.1-0.6,0.2-1,0.2c-0.6,0-1.1-0.2-1.5-0.7c-0.4-0.5-0.5-1.1-0.5-1.9V34.1z M50.1,34.2c0,0.6,0.1,1.2,0.4,1.5
		c0.3,0.4,0.7,0.6,1.2,0.6c0.4,0,0.7-0.1,1-0.3c0.3-0.2,0.4-0.4,0.6-0.7v-2.5c-0.1-0.3-0.3-0.6-0.6-0.8s-0.6-0.3-1-0.3
		c-0.5,0-0.9,0.2-1.2,0.6c-0.3,0.4-0.4,1-0.4,1.7V34.2z"/>
	<path class="st0" d="M56.9,36.8c-0.7,0-1.2-0.2-1.7-0.7c-0.4-0.5-0.7-1.1-0.7-1.9v-0.3c0-0.8,0.2-1.4,0.7-1.9
		c0.4-0.5,1-0.8,1.6-0.8c0.7,0,1.2,0.2,1.5,0.6s0.6,1,0.6,1.6v0.5h-3.8v0.1c0,0.6,0.2,1.1,0.5,1.5c0.3,0.4,0.7,0.6,1.3,0.6
		c0.4,0,0.7-0.1,0.9-0.2c0.3-0.1,0.5-0.2,0.7-0.4l0.3,0.4c-0.2,0.2-0.5,0.4-0.8,0.5S57.3,36.8,56.9,36.8z M56.8,31.8
		c-0.4,0-0.8,0.2-1.1,0.5c-0.3,0.3-0.5,0.7-0.5,1.2l0,0h3.1v-0.1c0-0.5-0.1-0.8-0.4-1.2C57.6,32,57.3,31.8,56.8,31.8z"/>
	<path class="st0" d="M60.2,31.4l0.1,0.9c0.2-0.3,0.4-0.6,0.7-0.8c0.3-0.2,0.6-0.3,1-0.3c0.6,0,1,0.2,1.3,0.5
		c0.3,0.4,0.5,0.9,0.5,1.6v3.2h-0.6v-3.2c0-0.6-0.1-1-0.3-1.3c-0.2-0.3-0.6-0.4-1-0.4c-0.4,0-0.7,0.1-1,0.3
		c-0.3,0.2-0.4,0.5-0.6,0.9v3.7h-0.6v-5.3H60.2z"/>
	<path class="st0" d="M67.7,29.9h-0.6v-0.8h0.6V29.9z M67.7,36.7h-0.6v-5.3h0.6V36.7z"/>
	<path class="st0" d="M69.3,31.4l0.1,0.9c0.2-0.3,0.4-0.6,0.7-0.8c0.3-0.2,0.6-0.3,1-0.3c0.6,0,1,0.2,1.3,0.5
		c0.3,0.4,0.5,0.9,0.5,1.6v3.2h-0.6v-3.2c0-0.6-0.1-1-0.3-1.3c-0.2-0.3-0.6-0.4-1-0.4c-0.4,0-0.7,0.1-1,0.3
		c-0.3,0.2-0.4,0.5-0.6,0.9v3.7h-0.6v-5.3H69.3z"/>
</g>
<g>
	<path class="st0" d="M76.8,36h3.4v0.8h-4.3v-7.1h1V36z"/>
	<path class="st0" d="M82.9,36.8c-0.7,0-1.3-0.2-1.8-0.7c-0.4-0.5-0.7-1.1-0.7-1.9v-0.2c0-0.8,0.2-1.4,0.7-1.9
		c0.5-0.5,1-0.8,1.6-0.8c0.7,0,1.3,0.2,1.6,0.6c0.4,0.4,0.5,1,0.5,1.7v0.6h-3.4l0,0c0,0.5,0.1,0.9,0.4,1.3c0.2,0.3,0.6,0.5,1,0.5
		c0.3,0,0.6,0,0.9-0.1c0.2-0.1,0.5-0.2,0.6-0.4l0.4,0.6c-0.2,0.2-0.4,0.3-0.8,0.5C83.7,36.8,83.4,36.8,82.9,36.8z M82.8,32.1
		c-0.3,0-0.6,0.1-0.8,0.4c-0.2,0.3-0.4,0.6-0.4,1l0,0H84v-0.1c0-0.4-0.1-0.7-0.3-0.9C83.5,32.2,83.2,32.1,82.8,32.1z"/>
	<path class="st0" d="M86.8,30h-1v-1h1V30z M86.8,36.7h-1v-5.3h1V36.7z"/>
	<path class="st0" d="M92.4,34.3c0,0.8-0.2,1.4-0.5,1.9c-0.4,0.5-0.9,0.7-1.5,0.7c-0.3,0-0.6-0.1-0.9-0.2s-0.5-0.3-0.6-0.5v2.6h-1
		v-7.4h0.7l0.2,0.7c0.2-0.3,0.4-0.5,0.6-0.6c0.3-0.1,0.6-0.2,0.9-0.2c0.7,0,1.2,0.3,1.5,0.8c0.4,0.5,0.5,1.2,0.5,2.1V34.3z
		 M91.4,34.2c0-0.6-0.1-1.1-0.4-1.5s-0.6-0.6-1-0.6c-0.3,0-0.5,0.1-0.7,0.2c-0.2,0.1-0.4,0.3-0.5,0.5v2.6c0.1,0.2,0.3,0.4,0.5,0.5
		s0.4,0.2,0.7,0.2c0.5,0,0.8-0.2,1-0.5c0.2-0.3,0.4-0.8,0.4-1.3V34.2z"/>
	<path class="st0" d="M94.1,36h3.1v0.8H93V36l2.9-3.9H93v-0.8h4v0.7L94.1,36z"/>
	<path class="st0" d="M99,30h-1v-1h1V30z M99,36.7h-1v-5.3h1V36.7z"/>
	<path class="st0" d="M99.9,34.2c0-0.9,0.2-1.5,0.6-2.1s0.9-0.8,1.5-0.8c0.3,0,0.6,0.1,0.9,0.2c0.3,0.1,0.5,0.3,0.6,0.6l0.1-0.7h0.8
		v5.3c0,0.7-0.2,1.2-0.6,1.6c-0.4,0.4-1,0.5-1.7,0.5c-0.3,0-0.5,0-0.8-0.1s-0.6-0.2-0.8-0.3l0.2-0.8c0.2,0.1,0.4,0.2,0.6,0.2
		s0.5,0.1,0.7,0.1c0.5,0,0.8-0.1,1-0.3c0.2-0.2,0.3-0.5,0.3-1v-0.6c-0.2,0.2-0.4,0.4-0.6,0.5s-0.5,0.2-0.8,0.2
		c-0.7,0-1.2-0.2-1.5-0.7c-0.4-0.5-0.6-1.1-0.6-1.9V34.2z M100.9,34.3c0,0.5,0.1,1,0.3,1.3c0.2,0.3,0.6,0.5,1,0.5
		c0.3,0,0.5-0.1,0.7-0.2c0.2-0.1,0.4-0.3,0.5-0.6v-2.4c-0.1-0.2-0.3-0.4-0.5-0.5c-0.2-0.1-0.4-0.2-0.7-0.2c-0.5,0-0.8,0.2-1,0.6
		c-0.2,0.4-0.3,0.9-0.3,1.5V34.3z"/>
</g>
<rect x="-13.9" y="-13.5" class="st1" width="147.3" height="54"/>
<rect x="0.4" y="24.4" class="st2" width="104.1" height="0.5"/>
<path class="st0" d="M3,5.9l0.2,1.7C3.6,7,4.1,6.5,4.7,6.2s1.3-0.5,2.2-0.5c0.8,0,1.5,0.2,2.1,0.6s1,0.9,1.3,1.7
	c0.4-0.7,0.9-1.3,1.5-1.7s1.4-0.6,2.2-0.6c1.3,0,2.3,0.4,3,1.3s1.1,2.2,1.1,4v7.6h-2.8V11c0-1.1-0.2-1.8-0.6-2.3S14,8,13.2,8
	c-0.6,0-1.1,0.2-1.5,0.5S11,9.3,10.8,9.9c0,0.1,0,0.2,0,0.3s0,0.2,0,0.2v8.2H7.9V11c0-1-0.2-1.8-0.6-2.2S6.4,8,5.7,8
	C5.1,8,4.6,8.2,4.2,8.4s-0.7,0.5-1,0.9v9.3H0.4V5.9H3z"/>
<path class="st0" d="M25.5,18.9c-1.8,0-3.2-0.6-4.3-1.8s-1.6-2.7-1.6-4.5v-0.5c0-1.8,0.5-3.4,1.6-4.6s2.4-1.8,4-1.8
	c1.7,0,3,0.5,3.9,1.6s1.4,2.4,1.4,4.2v1.7h-7.9l0,0.1c0,1,0.3,1.8,0.9,2.5c0.5,0.6,1.3,1,2.3,1c0.8,0,1.4-0.1,2-0.3s1.1-0.5,1.6-0.8
	l0.9,1.9c-0.5,0.4-1.1,0.8-1.9,1.1C27.5,18.7,26.6,18.9,25.5,18.9z M25.2,8c-0.7,0-1.3,0.3-1.7,0.8s-0.7,1.3-0.8,2.1l0,0.1h5v-0.3
	c0-0.8-0.2-1.5-0.6-2S26,8,25.2,8z"/>
<path class="st0" d="M34.9,18.6h-2.8V0.3h2.8V18.6z"/>
<path class="st0" d="M39.7,18.6h-2.8V0.3h2.8V18.6z"/>
<path class="st0" d="M44.5,2.8h-2.8V0.3h2.8V2.8z M44.5,18.6h-2.8V5.9h2.8V18.6z"/>
<path class="st0" d="M49.3,12.1h-1.7v6.5H47V0.3h0.6v11.2h1.5l5.8-5.6h0.7l0,0.1l-5.8,5.7l6.3,6.8l0,0.1h-0.7L49.3,12.1z"/>
<path class="st0" d="M56.1,12c0-1.9,0.5-3.4,1.5-4.6s2.4-1.8,4-1.8c1.6,0,3,0.6,4,1.8s1.5,2.7,1.5,4.6v0.5c0,1.9-0.5,3.4-1.5,4.6
	s-2.4,1.8-4,1.8c-1.6,0-3-0.6-4-1.8s-1.5-2.7-1.5-4.6V12z M56.8,12.5c0,1.6,0.4,2.9,1.3,4s2.1,1.7,3.6,1.7c1.5,0,2.7-0.6,3.6-1.7
	s1.3-2.5,1.3-4V12c0-1.6-0.4-2.9-1.3-4s-2.1-1.7-3.6-1.7c-1.5,0-2.7,0.6-3.6,1.7s-1.3,2.5-1.3,4V12.5z"/>
<path class="st0" d="M74.1,18.9c-1.4,0-2.7-0.6-3.7-1.8s-1.6-2.6-1.6-4.4V12c0-1.8,0.5-3.3,1.5-4.5s2.3-1.8,3.8-1.8
	c1.4,0,2.6,0.5,3.5,1.4s1.4,2.2,1.4,3.8v1h-9.5V12v0.8c0,1.5,0.4,2.8,1.3,3.9s2,1.6,3.3,1.6c0.9,0,1.7-0.1,2.4-0.4s1.2-0.6,1.6-1.2
	l0.3,0.5c-0.5,0.6-1.1,1-1.8,1.3S75.1,18.9,74.1,18.9z M74.1,6.3c-1.3,0-2.3,0.5-3.1,1.4s-1.3,2.1-1.4,3.4l0,0.1h8.7v-0.4
	c0-1.3-0.4-2.4-1.2-3.2S75.3,6.3,74.1,6.3z"/>
<path class="st0" d="M81.7,18.6h-1v-1.5h1V18.6z"/>
<path class="st0" d="M83.1,12.3c0-2,0.4-3.6,1.3-4.8s2-1.8,3.5-1.8c1,0,1.8,0.2,2.6,0.7s1.3,1.1,1.7,1.8V0.3h0.6v18.3h-0.6l0-2
	c-0.4,0.7-1,1.2-1.7,1.6s-1.6,0.6-2.6,0.6c-1.5,0-2.7-0.6-3.5-1.7s-1.3-2.7-1.3-4.6V12.3z M83.8,12.5c0,1.8,0.3,3.1,1,4.2
	s1.7,1.5,3.1,1.5c1.1,0,2-0.2,2.7-0.8s1.3-1.2,1.6-2V9.5c-0.3-0.9-0.8-1.7-1.5-2.3s-1.6-0.9-2.8-0.9c-1.3,0-2.4,0.5-3.1,1.6
	s-1,2.5-1,4.3V12.5z"/>
<path class="st0" d="M99.7,18.9c-1.4,0-2.7-0.6-3.7-1.8s-1.6-2.6-1.6-4.4V12c0-1.8,0.5-3.3,1.5-4.5s2.3-1.8,3.8-1.8
	c1.4,0,2.6,0.5,3.5,1.4s1.4,2.2,1.4,3.8v1h-9.5V12v0.8c0,1.5,0.4,2.8,1.3,3.9s2,1.6,3.3,1.6c0.9,0,1.7-0.1,2.4-0.4s1.2-0.6,1.6-1.2
	l0.3,0.5c-0.5,0.6-1.1,1-1.8,1.3S100.7,18.9,99.7,18.9z M99.7,6.3c-1.3,0-2.3,0.5-3.1,1.4s-1.3,2.1-1.4,3.4l0,0.1h8.7v-0.4
	c0-1.3-0.4-2.4-1.2-3.2S101,6.3,99.7,6.3z"/>
</svg>
